# xmcd
#
# Track frame offsets:
#	150
#	11531
#	25863
#	38922
#	56740
#
# Disc length: 936 seconds
#
# Revision: 1
# Processed by: cddbd v1.5.2PL0 Copyright (c) Steve Scherf et al.
# Submitted via: audiograbber 1.82.02
#
DISCID=3603a605
DTITLE=Blue Stones - Èerný den
DYEAR=2008
DGENRE=Bluegrass
TTITLE0=Èerný den
TTITLE1=Vyvolená
TTITLE2=I'll Fly Away
TTITLE3=Karolína
TTITLE4=Rocky Top Tennessee
EXTD=
EXTT0=
EXTT1=
EXTT2=
EXTT3=
EXTT4=
PLAYORDER=
